<?xml version="1.0" encoding="UTF-8"?>
<!DOCTYPE svg PUBLIC "-//W3C//DTD SVG 1.1//EN" "http://www.w3.org/Graphics/SVG/1.1/DTD/svg11.dtd">
<!-- Creator: CorelDRAW 2020 (64-Bit) -->
<svg xmlns="http://www.w3.org/2000/svg" xml:space="preserve" width="210.2mm" height="157.7mm" version="1.1" style="shape-rendering:geometricPrecision; text-rendering:geometricPrecision; image-rendering:optimizeQuality; fill-rule:evenodd; clip-rule:evenodd"
viewBox="0 0 21020 15770"
 xmlns:xlink="http://www.w3.org/1999/xlink"
 xmlns:xodm="http://www.corel.com/coreldraw/odm/2003">
 <defs>
  <style type="text/css">
   <![CDATA[
    .str0 {stroke:#1B182D;stroke-width:20;stroke-miterlimit:22.9256}
    .fil0 {fill:#1B182D;fill-rule:nonzero}
   ]]>
  </style>
 </defs>
 <g id="Capa_x0020_1">
  <metadata id="CorelCorpID_0Corel-Layer"/>
  <path id="id_101" class="fil0 str0" d="M19697.5 5260l-9187.5 0 0 -3937.5c0,-635.25 -492.19,-1312.5 -1312.5,-1312.5 -605.06,0 -912.19,376.69 -1312.5,708.75l-7054.69 5853.75c-502.69,410.81 -820.31,728.44 -820.31,1312.5 0,584.06 317.63,903 820.31,1312.5l7054.69 5853.75c400.31,332.06 707.44,708.75 1312.5,708.75 820.31,0 1312.5,-677.25 1312.5,-1312.5l0 -3937.5 9187.5 0c721.88,0 1312.5,-590.63 1312.5,-1312.5l0 -2625c0,-721.88 -590.62,-1312.5 -1312.5,-1312.5z"/>
 </g>
</svg>
