<?xml version="1.0" encoding="UTF-8"?>
<!DOCTYPE svg PUBLIC "-//W3C//DTD SVG 1.1//EN" "http://www.w3.org/Graphics/SVG/1.1/DTD/svg11.dtd">
<!-- Creator: CorelDRAW 2020 (64-Bit) -->
<svg xmlns="http://www.w3.org/2000/svg" xml:space="preserve" width="7.7015mm" height="7.3901mm" version="1.1" style="shape-rendering:geometricPrecision; text-rendering:geometricPrecision; image-rendering:optimizeQuality; fill-rule:evenodd; clip-rule:evenodd"
viewBox="0 0 770.16 739.02"
 xmlns:xlink="http://www.w3.org/1999/xlink"
 xmlns:xodm="http://www.corel.com/coreldraw/odm/2003">
 <defs>
  <style type="text/css">
   <![CDATA[
    .fil0 {fill:#1B182D;fill-rule:nonzero}
   ]]>
  </style>
 </defs>
 <g id="Layer_x0020_1">
  <metadata id="CorelCorpID_0Corel-Layer"/>
  <path id="id_102" class="fil0" d="M-0 32.41c0,-43.21 68.63,-43.21 68.63,0l0 592.23 142.34 -218.59c-5.08,-10.17 -7.63,-20.33 -7.63,-33.04 0,-71.17 104.21,-73.71 109.29,-2.54l147.42 68.63c10.17,-10.17 25.42,-17.79 40.67,-17.79l55.92 -231.3c-43.21,-30.5 -22.88,-101.67 33.04,-101.67 33.04,0 61,33.04 53.38,68.63l38.13 25.42c10.17,-7.63 22.88,-12.71 35.58,-12.71 71.17,0 71.17,109.29 0,109.29 -38.13,0 -63.54,-35.58 -53.38,-68.63l-38.13 -25.42c-10.17,10.17 -22.88,15.25 -35.58,15.25l-2.54 0 -53.38 231.3c45.75,30.5 22.88,101.67 -30.5,101.67 -33.04,0 -58.46,-30.5 -55.92,-61l-142.34 -68.63c-15.25,22.88 -40.67,30.5 -66.08,22.88l-162.67 246.55 637.98 0c43.21,0 43.21,66.08 0,66.08l-681.19 0c-17.79,0 -33.04,-15.25 -33.04,-33.04l0 -673.57z" data-darkreader-inline-fill=""/>
 </g>
</svg>
